<?xml version="1.0" encoding="UTF-8" standalone="no"?>
<svg width="169px" height="34px" viewBox="0 0 169 34" version="1.1" xmlns="http://www.w3.org/2000/svg" xmlns:xlink="http://www.w3.org/1999/xlink" xmlns:sketch="http://www.bohemiancoding.com/sketch/ns">
    <!-- Generator: Sketch 3.0.1 (7597) - http://www.bohemiancoding.com/sketch -->
    <title>ЗНО 2015</title>
    <description>Created with Sketch.</description>
    <defs></defs>
    <g id="Site" stroke="none" stroke-width="1" fill="none" fill-rule="evenodd" sketch:type="MSPage">
        <g id="Lesson-inner" sketch:type="MSArtboardGroup" transform="translate(-58.000000, -21.000000)">
            <g id="Header" sketch:type="MSLayerGroup" transform="translate(0.000000, -1.000000)">
                <path fill="#5F86B6" d="M68.892,35.808 C70.7880095,35.8560002 72.1859955,35.6100027 73.086,35.07 C73.9860045,34.5299973 74.436,33.4680079 74.436,31.884 C74.436,30.7559944 74.0940034,29.8860031 73.41,29.274 C72.7259966,28.6619969 71.784006,28.356 70.584,28.356 C69.8639964,28.356 69.2340027,28.4879987 68.694,28.752 C68.1539973,29.0160013 67.7160017,29.3819977 67.38,29.85 C67.0439983,30.3180023 66.7980008,30.8639969 66.642,31.488 C66.4859992,32.1120031 66.4199999,32.7839964 66.444,33.504 L62.016,33.504 C62.0640002,32.2319936 62.285998,31.0560054 62.682,29.976 C63.078002,28.8959946 63.6419963,27.9660039 64.374,27.186 C65.1060037,26.4059961 65.9999947,25.7940022 67.056,25.35 C68.1120053,24.9059978 69.3119933,24.684 70.656,24.684 C71.7840056,24.684 72.851995,24.8279986 73.86,25.116 C74.868005,25.4040014 75.7499962,25.8359971 76.506,26.412 C77.2620038,26.9880029 77.8559978,27.7079957 78.288,28.572 C78.7200022,29.4360043 78.936,30.4439942 78.936,31.596 C78.936,32.9160066 78.6240031,34.0559952 78,35.016 C77.3759969,35.9760048 76.4280064,36.6839977 75.156,37.14 L75.156,37.212 C76.6440074,37.5000014 77.8199957,38.2319941 78.684,39.408 C79.5480043,40.5840059 79.98,42.0119916 79.98,43.692 C79.98,44.9160061 79.7460023,46.0199951 79.278,47.004 C78.8099977,47.9880049 78.1620041,48.8219966 77.334,49.506 C76.5059959,50.1900034 75.5280056,50.7119982 74.4,51.072 C73.2719944,51.4320018 72.0360067,51.612 70.692,51.612 C69.1079921,51.612 67.7460057,51.3960022 66.606,50.964 C65.4659943,50.5319978 64.5180038,49.9260039 63.762,49.146 C63.0059962,48.3659961 62.4420019,47.4180056 62.07,46.302 C61.6979981,45.1859944 61.5000001,43.9440068 61.476,42.576 L65.904,42.576 C65.8559998,44.2320083 66.227996,45.5399952 67.02,46.5 C67.812004,47.4600048 69.0359917,47.94 70.692,47.94 C72.2520078,47.94 73.4399959,47.5740037 74.256,46.842 C75.0720041,46.1099963 75.48,44.9880076 75.48,43.476 C75.48,42.467995 75.3420014,41.6700029 75.066,41.082 C74.7899986,40.4939971 74.3760028,40.0500015 73.824,39.75 C73.2719972,39.4499985 72.5880041,39.2700003 71.772,39.21 C70.9559959,39.1499997 69.9960055,39.1319999 68.892,39.156 L68.892,35.808 Z M83.904,25.296 L88.404,25.296 L88.404,35.52 L100.104,35.52 L100.104,25.296 L104.604,25.296 L104.604,51 L100.104,51 L100.104,39.408 L88.404,39.408 L88.404,51 L83.904,51 L83.904,25.296 Z M120.948,24.684 C122.86801,24.684 124.589992,25.0439964 126.114,25.764 C127.638008,26.4840036 128.927995,27.4559939 129.984,28.68 C131.040005,29.9040061 131.849997,31.3319918 132.414,32.964 C132.978003,34.5960082 133.26,36.3239909 133.26,38.148 C133.26,39.9960092 132.978003,41.7359918 132.414,43.368 C131.849997,45.0000082 131.040005,46.4279939 129.984,47.652 C128.927995,48.8760061 127.638008,49.8419965 126.114,50.55 C124.589992,51.2580035 122.86801,51.612 120.948,51.612 C119.02799,51.612 117.306008,51.2580035 115.782,50.55 C114.257992,49.8419965 112.968005,48.8760061 111.912,47.652 C110.855995,46.4279939 110.046003,45.0000082 109.482,43.368 C108.917997,41.7359918 108.636,39.9960092 108.636,38.148 C108.636,36.3239909 108.917997,34.5960082 109.482,32.964 C110.046003,31.3319918 110.855995,29.9040061 111.912,28.68 C112.968005,27.4559939 114.257992,26.4840036 115.782,25.764 C117.306008,25.0439964 119.02799,24.684 120.948,24.684 Z M120.948,28.356 C119.579993,28.356 118.398005,28.6319972 117.402,29.184 C116.405995,29.7360028 115.596003,30.4739954 114.972,31.398 C114.347997,32.3220046 113.886001,33.3719941 113.586,34.548 C113.285999,35.7240059 113.136,36.9239939 113.136,38.148 C113.136,39.3720061 113.285999,40.5719941 113.586,41.748 C113.886001,42.9240059 114.347997,43.9739954 114.972,44.898 C115.596003,45.8220046 116.405995,46.5599972 117.402,47.112 C118.398005,47.6640028 119.579993,47.94 120.948,47.94 C122.316007,47.94 123.497995,47.6640028 124.494,47.112 C125.490005,46.5599972 126.299997,45.8220046 126.924,44.898 C127.548003,43.9739954 128.009998,42.9240059 128.31,41.748 C128.610002,40.5719941 128.76,39.3720061 128.76,38.148 C128.76,36.9239939 128.610002,35.7240059 128.31,34.548 C128.009998,33.3719941 127.548003,32.3220046 126.924,31.398 C126.299997,30.4739954 125.490005,29.7360028 124.494,29.184 C123.497995,28.6319972 122.316007,28.356 120.948,28.356 Z" id="ЗНО" sketch:type="MSShapeGroup"></path>

                  <path fill="#666666" d="M163.248,51 L146.04,51 C146.064,48.9119896 146.567995,47.0880078 147.552,45.528 C148.536005,43.9679922 149.879991,42.6120058 151.584,41.46 C152.400004,40.859997 153.251996,40.2780028 154.14,39.714 C155.028004,39.1499972 155.843996,38.5440032 156.588,37.896 C157.332004,37.2479968 157.943998,36.5460038 158.424,35.79 C158.904002,35.0339962 159.156,34.1640049 159.18,33.18 C159.18,32.7239977 159.126001,32.2380026 159.018,31.722 C158.909999,31.2059974 158.700002,30.7260022 158.388,30.282 C158.075998,29.8379978 157.644003,29.4660015 157.092,29.166 C156.539997,28.8659985 155.820004,28.716 154.932,28.716 C154.115996,28.716 153.438003,28.8779984 152.898,29.202 C152.357997,29.5260016 151.926002,29.9699972 151.602,30.534 C151.277998,31.0980028 151.038001,31.7639962 150.882,32.532 C150.725999,33.3000038 150.636,34.1279956 150.612,35.016 L146.508,35.016 C146.508,33.623993 146.693998,32.3340059 147.066,31.146 C147.438002,29.9579941 147.995996,28.9320043 148.74,28.068 C149.484004,27.2039957 150.389995,26.5260025 151.458,26.034 C152.526005,25.5419975 153.767993,25.296 155.184,25.296 C156.720008,25.296 158.003995,25.5479975 159.036,26.052 C160.068005,26.5560025 160.901997,27.1919962 161.538,27.96 C162.174003,28.7280038 162.623999,29.5619955 162.888,30.462 C163.152001,31.3620045 163.284,32.2199959 163.284,33.036 C163.284,34.044005 163.128002,34.9559959 162.816,35.772 C162.503998,36.5880041 162.084003,37.3379966 161.556,38.022 C161.027997,38.7060034 160.428003,39.3359971 159.756,39.912 C159.083997,40.4880029 158.388004,41.0279975 157.668,41.532 C156.947996,42.0360025 156.228004,42.5159977 155.508,42.972 C154.787996,43.4280023 154.122003,43.8839977 153.51,44.34 C152.897997,44.7960023 152.364002,45.2699975 151.908,45.762 C151.451998,46.2540025 151.140001,46.7759972 150.972,47.328 L163.248,47.328 L163.248,51 ZM174.66,25.296 C176.460009,25.296 177.929994,25.7099959 179.07,26.538 C180.210006,27.3660041 181.097997,28.4219936 181.734,29.706 C182.370003,30.9900064 182.801999,32.3999923 183.03,33.936 C183.258001,35.4720077 183.372,36.9599928 183.372,38.4 C183.372,39.8400072 183.258001,41.3279923 183.03,42.864 C182.801999,44.4000077 182.370003,45.8099936 181.734,47.094 C181.097997,48.3780064 180.210006,49.4339959 179.07,50.262 C177.929994,51.0900041 176.460009,51.504 174.66,51.504 C172.859991,51.504 171.390006,51.0900041 170.25,50.262 C169.109994,49.4339959 168.222003,48.3780064 167.586,47.094 C166.949997,45.8099936 166.518001,44.4000077 166.29,42.864 C166.061999,41.3279923 165.948,39.8400072 165.948,38.4 C165.948,36.9599928 166.061999,35.4720077 166.29,33.936 C166.518001,32.3999923 166.949997,30.9900064 167.586,29.706 C168.222003,28.4219936 169.109994,27.3660041 170.25,26.538 C171.390006,25.7099959 172.859991,25.296 174.66,25.296 ZM174.66,48.084 C175.548004,48.084 176.291997,47.8260026 176.892,47.31 C177.492003,46.7939974 177.965998,46.0980044 178.314,45.222 C178.662002,44.3459956 178.907999,43.3200059 179.052,42.144 C179.196001,40.9679941 179.268,39.7200066 179.268,38.4 C179.268,37.0799934 179.196001,35.8380058 179.052,34.674 C178.907999,33.5099942 178.662002,32.4840044 178.314,31.596 C177.965998,30.7079956 177.492003,30.0060026 176.892,29.49 C176.291997,28.9739974 175.548004,28.716 174.66,28.716 C173.747995,28.716 172.998003,28.9739974 172.41,29.49 C171.821997,30.0060026 171.354002,30.7079956 171.006,31.596 C170.657998,32.4840044 170.412001,33.5099942 170.268,34.674 C170.123999,35.8380058 170.052,37.0799934 170.052,38.4 C170.052,39.7200066 170.123999,40.9679941 170.268,42.144 C170.412001,43.3200059 170.657998,44.3459956 171.006,45.222 C171.354002,46.0980044 171.821997,46.7939974 172.41,47.31 C172.998003,47.8260026 173.747995,48.084 174.66,48.084 Z M186.576,29.976 C187.440004,29.976 188.279996,29.9040007 189.096,29.76 C189.912004,29.6159993 190.649997,29.3760017 191.31,29.04 C191.970003,28.7039983 192.533998,28.2720026 193.002,27.744 C193.470002,27.2159974 193.775999,26.5680038 193.92,25.8 L197.268,25.8 L197.268,51 L192.768,51 L192.768,33.216 L186.576,33.216 L186.576,29.976 ZM209.112,25.8 L222.144,25.8 L222.144,29.472 L212.172,29.472 L210.876,35.88 L210.948,35.952 C211.500003,35.3279969 212.201996,34.8540016 213.054,34.53 C213.906004,34.2059984 214.751996,34.044 215.592,34.044 C216.840006,34.044 217.955995,34.2539979 218.94,34.674 C219.924005,35.0940021 220.751997,35.6819962 221.424,36.438 C222.096003,37.1940038 222.605998,38.0879948 222.954,39.12 C223.302002,40.1520052 223.476,41.267994 223.476,42.468 C223.476,43.476005 223.314002,44.5139947 222.99,45.582 C222.665998,46.6500053 222.150004,47.6219956 221.442,48.498 C220.733996,49.3740044 219.828006,50.0939972 218.724,50.658 C217.619994,51.2220028 216.300008,51.504 214.764,51.504 C213.539994,51.504 212.406005,51.3420016 211.362,51.018 C210.317995,50.6939984 209.400004,50.2080032 208.608,49.56 C207.815996,48.9119968 207.186002,48.1140047 206.718,47.166 C206.249998,46.2179953 205.992,45.1080064 205.944,43.836 L210.048,43.836 C210.168001,45.2040068 210.635996,46.2539963 211.452,46.986 C212.268004,47.7180037 213.347993,48.084 214.692,48.084 C215.556004,48.084 216.287997,47.9400014 216.888,47.652 C217.488003,47.3639986 217.973998,46.9680025 218.346,46.464 C218.718002,45.9599975 218.981999,45.3720034 219.138,44.7 C219.294001,44.0279966 219.372,43.3080038 219.372,42.54 C219.372,41.8439965 219.276001,41.1780032 219.084,40.542 C218.891999,39.9059968 218.604002,39.3480024 218.22,38.868 C217.835998,38.3879976 217.338003,38.0040014 216.726,37.716 C216.113997,37.4279986 215.400004,37.284 214.584,37.284 C213.719996,37.284 212.910004,37.4459984 212.154,37.77 C211.397996,38.0940016 210.852002,38.6999956 210.516,39.588 L206.412,39.588 L209.112,25.8 Z" id="ЗНО-2015" sketch:type="MSShapeGroup"></path>
            </g>
        </g>
    </g>
</svg>