<?xml version="1.0" encoding="UTF-8" standalone="no"?>
<svg width="325px" height="212px" viewBox="0 0 325 212" version="1.1" xmlns="http://www.w3.org/2000/svg" xmlns:xlink="http://www.w3.org/1999/xlink" xmlns:sketch="http://www.bohemiancoding.com/sketch/ns">
    <!-- Generator: Sketch 3.0.1 (7597) - http://www.bohemiancoding.com/sketch -->
    <title>Blank_map_of_Ukraine</title>
    <description>Created with Sketch.</description>
    <defs></defs>
    <g id="Site" stroke="none" stroke-width="1" fill="none" fill-rule="evenodd" sketch:type="MSPage">
        <g id="Main-page" sketch:type="MSArtboardGroup" transform="translate(-535.000000, -1680.000000)" fill="#213236">
            <g id="Footer" sketch:type="MSLayerGroup" transform="translate(0.000000, 1623.000000)">
                <g id="Blank_map_of_Ukraine" transform="translate(698.825753, 155.000000) rotate(15.000000) translate(-698.825753, -155.000000) translate(539.325753, 47.000000)" sketch:type="MSShapeGroup">
                    <g id="layer1" transform="translate(159.500000, 108.000000) rotate(-2.000000) translate(-159.500000, -108.000000) translate(3.000000, 5.000000)">
                        <path d="M293.991924,98.7318391 C294.409983,96.5384998 291.483589,99.3300198 291.483589,98.133634 C291.692618,96.7378954 290.438458,91.9523828 291.06553,90.7559971 C291.274559,90.7559971 297.336377,85.3723298 297.336377,85.3723298 C297.75442,84.5747291 296.709289,83.5777573 296.709289,82.780181 C296.50026,81.9825803 296.291215,80.9856084 296.918302,80.1880322 C300.053742,76.5989115 309.878055,78.194064 312.804449,74.0067627 C313.431521,73.209162 312.386391,72.0128007 311.968332,71.0158288 C311.759319,70.6170376 310.923186,70.417642 310.923186,70.0188508 C310.923186,69.4206702 312.177361,69.4206702 312.177361,69.0218607 C312.177361,68.42368 311.341244,68.0248888 311.132231,67.4267081 C310.923186,66.4297118 311.132231,65.2333444 311.341244,64.0369586 C311.341244,63.6381919 311.968332,63.2393824 311.968332,62.8405912 C312.804449,60.4478563 309.041938,62.6411956 309.041938,62.6411956 C308.414866,62.2424105 309.669026,61.2454386 309.459997,60.4478563 C308.623895,59.0520749 307.369704,57.6562935 306.324573,56.4599261 C304.861368,55.0641875 302.562078,58.4538942 302.353048,56.2605366 C301.307918,49.8798715 301.93499,51.6744441 305.697469,50.0792854 C305.90653,49.8798715 307.578733,46.4901464 306.324573,46.8889315 C303.398211,47.4871183 301.93499,49.4810803 299.426654,47.4871183 C296.709289,45.2937546 301.516915,44.6955739 302.144003,43.698602 C302.771107,43.1004153 301.93499,42.1034251 302.144003,41.5052383 C302.771107,38.9130956 305.279442,37.5173509 302.771107,34.9252021 C301.93499,33.9282119 300.471785,33.7288163 299.635683,32.93124 C298.590537,31.7348543 301.098872,29.1427054 299.426654,28.9433098 C295.455129,28.7439387 297.963449,31.9342437 294.828057,32.5324488 C284.167611,34.1276075 297.545422,31.1366675 288.975269,29.7408861 C286.257904,29.3420949 286.048875,32.3330349 283.749568,30.9372719 C282.913451,30.5384868 282.286379,29.5415149 281.659275,28.9433098 C279.778044,27.7469241 280.614145,32.3330349 278.314823,32.3330349 C276.851649,32.3330349 275.388444,31.9342437 273.925255,31.3360631 C273.298183,30.9372719 272.880109,29.5415149 272.043992,29.7408861 C270.998861,29.7408861 270.580802,31.7348543 269.326643,31.7348543 C267.863437,31.7348543 266.818307,30.3390668 265.146073,30.1396956 C259.711343,29.3420949 267.863437,37.118523 262.219678,36.1215695 C260.756489,35.9221556 260.338415,34.1276075 259.084271,33.5294207 C258.248154,33.1306356 256.993994,33.7288163 255.948847,33.3300312 C252.813424,32.3330349 250.514133,28.5445187 247.796769,26.5505749 C246.960667,25.9523698 239.226615,33.5294207 236.50925,37.118523 C235.673149,38.3149088 233.582856,36.1215695 232.119683,35.9221556 C231.283566,35.9221556 231.283566,37.118523 230.656494,37.5173509 C229.611363,38.1155132 228.77523,35.7227844 227.52107,35.3239749 C222.504367,34.1276075 221.459252,41.1064532 217.90577,39.3119051 C216.442581,38.7137 215.188421,37.9161237 214.143275,36.9191458 C213.307142,36.1215695 212.471057,35.1245977 212.262027,33.9282119 C212.262027,33.3300312 213.516187,33.1306356 213.307142,32.5324488 C213.307142,31.7348543 207.872428,27.1487373 207.663399,26.5505749 C207.454369,25.9523698 208.708561,24.955398 208.290486,24.5566129 C206.618284,24.5566129 205.99118,25.1547936 205.155079,25.1547936 C203.691874,25.3541892 203.482845,22.961436 202.646743,21.9644641 C202.437714,21.5656729 202.019655,21.5656729 201.601581,21.7650685 C200.76548,22.1638536 196.37588,24.7560024 195.539811,24.7560024 C195.12172,24.955398 195.12172,23.7590305 194.494649,23.7590305 C193.031459,23.7590305 191.568254,23.9584078 190.314095,24.3572173 C189.89602,24.5566129 188.64186,27.3481512 187.59673,25.3541892 C187.3877,24.955398 188.223802,24.5566129 188.223802,24.1578217 C188.432863,23.5596166 188.432863,22.7620404 188.014788,22.3632492 C187.3877,21.7650685 186.551567,22.1638536 185.924495,21.5656729 C184.879365,20.9674678 186.13354,18.9735058 185.297407,18.1759478 C184.461306,17.1789515 181.534912,16.5807709 182.162,15.3844034 C182.998117,14.3874316 187.805775,13.3904414 186.551567,11.5958688 C184.879365,9.20313394 180.90784,9.40252953 179.653648,8.40553325 C178.817547,7.80735258 178.190475,7.00977631 177.981462,6.21220005 C177.563387,5.41459936 178.190475,4.4176275 177.772416,4.01883631 C176.936315,3.22126066 175.682139,3.22126066 174.846022,2.62307999 C173.591846,1.82549761 172.964774,0.230326765 171.501585,0.0309311723 C169.829351,-0.367860013 169.202295,3.22126066 167.321031,3.22126066 C166.693943,3.22126066 166.902973,1.82549761 166.275869,1.82549761 C158.123806,1.22731694 163.140445,5.61401327 158.332819,7.60798141 C158.332819,7.60798141 149.344619,8.20616208 149.135591,8.20616208 C148.717542,8.20616208 150.180749,14.1880177 148.299486,15.9825902 C147.045307,16.9795804 145.58212,17.9765522 143.909886,18.1759478 C143.282828,18.1759478 143.491837,16.9795804 142.864753,16.5807709 C142.446704,16.3813997 141.819621,17.3783716 141.401572,17.1789515 C139.102255,17.7771566 136.384888,17.5777611 134.503633,18.7741285 C133.667522,19.1729197 134.085603,20.5686827 133.249473,20.9674678 C131.995313,21.5656729 130.323104,20.9674678 128.859891,21.3662773 C128.023767,21.5656729 126.56058,23.5596166 125.515448,29.1427054 C125.306401,30.5384868 124.888371,34.3270031 124.888371,35.9221556 C124.888371,38.1155132 133.249473,43.4992064 128.023767,44.4962027 C122.589054,45.6925641 125.097392,40.707662 120.289742,40.308877 C110.674457,39.7106902 122.171005,41.9040539 115.273086,43.1004153 C114.227934,43.2998109 113.182802,41.9040539 111.928642,42.1034251 C108.584174,42.9010258 110.465436,46.2907692 107.539041,47.0883271 C105.866826,47.4871183 104.194617,41.9040539 102.522383,41.1064532 C100.850149,40.308877 98.9689121,43.1004153 97.714733,44.6955739 C96.8786222,45.6925641 98.5508374,48.6835041 97.2966776,48.4841085 C92.9071023,47.4871183 99.3869675,48.6835041 93.9522344,45.0943834 C91.0258402,43.1004153 92.0709723,47.0883271 90.1897358,47.0883271 C84.9640304,47.0883271 89.5626335,45.2937546 87.681397,44.0973871 C86.4272371,43.4992064 86.4272371,46.4901464 85.5911071,47.2877227 C84.3369473,48.6835041 82.4556852,46.8889315 81.4105531,47.0883271 C80.3654018,47.0883271 81.4105531,50.6774661 80.3654018,51.2756529 C80.1563741,51.6744441 79.5292974,51.0762573 79.1112676,50.6774661 C76.3939011,49.2816847 83.9188983,45.8919413 75.5577711,48.0853234 C73.0494322,48.6835041 76.8119309,51.8738336 71.5862255,49.8798715 C70.9591424,49.6804759 72.2133278,48.4841085 71.7952724,48.0853234 C71.377217,47.6865078 70.5410934,48.6835041 70.1230572,48.4841085 C68.8689038,47.4871183 70.5410934,45.4931746 68.2418015,46.0913553 C63.4341452,47.2877227 56.9543072,47.8859034 51.7286019,47.2877227 C51.1015187,47.0883271 50.892491,46.2907692 50.2653951,46.2907692 C47.3390185,46.0913553 44.4126051,47.8859034 41.2772088,48.2846946 L38.1417868,48.2846946 C37.0966355,48.2846946 36.0515034,47.8859034 35.0063457,48.0853234 C32.2890048,48.8828752 30.4077427,50.8768434 27.8994039,51.8738336 C26.227195,52.4720203 24.1369052,52.0732292 22.4646964,52.8708054 C21.6285856,53.4690105 18.7021722,62.8405912 16.6119336,62.2424105 C15.9848313,62.0430149 15.9848313,61.046043 15.5667566,61.046043 C14.3125968,60.8466475 12.8494093,60.8466475 11.8042583,61.2454386 C8.45980935,62.2424105 13.4764924,64.0369586 10.9681475,64.6351637 C11.386222,65.43274 12.222307,66.0309207 12.6403816,66.8285213 C13.058437,68.0248888 12.222307,69.4206702 12.6403816,70.417642 C14.5216437,74.2061583 20.5834343,77.9946929 23.9278583,80.3874278 C24.5549606,80.9856084 19.7473299,80.7862128 20.792462,82.780181 C21.0014833,82.9795766 25.1820373,86.5686973 25.1820373,88.1638498 C24.5549606,95.342114 22.2556687,90.9553927 18.4931701,93.9463327 C16.8209357,95.342114 4.07023417,117.873828 4.69731088,119.469005 C5.11536628,121.662363 7.2056497,123.257521 7.83273264,125.251483 C8.04176035,126.248455 6.36952609,127.644218 7.2056497,128.441819 C10.7591262,132.62912 8.66883705,124.653278 11.1771752,132.230354 C11.386222,132.62912 10.5500992,131.632149 10.1320438,131.432753 C9.08689245,131.233339 8.04176035,131.632149 6.99660279,131.632149 C6.36952609,131.432753 5.53344073,131.432753 4.90636402,131.233339 C5.11536628,133.227301 3.65217877,136.018846 3.44315107,138.012814 C3.23412977,139.408571 3.44315107,140.804358 2.81607436,142.000719 C2.18899766,143.396499 0.307735702,143.795293 0.098708,145.191058 C-0.319347403,146.586838 0.725784704,147.982572 0.725784704,149.577749 C5.53344073,149.777161 2.39799992,151.970514 5.74246843,153.166897 C6.36952609,153.366294 7.2056497,152.369293 7.83273264,152.768103 C9.08689245,153.565691 9.29593936,155.559647 10.5500992,156.357236 C11.386222,156.556618 12.0133051,155.559647 12.8494093,155.36025 C13.4764924,155.36025 14.1035691,155.759044 14.5216437,155.958441 C17.2390103,157.753016 13.8945414,157.354206 16.4028803,159.348162 C17.0299634,159.746956 18.2841232,158.949383 19.7473299,155.160868 C19.9563512,154.762074 19.9563512,154.163883 20.3744066,154.163883 C21.0014833,154.163883 26.227195,156.556618 26.8542717,156.556618 C27.2723271,156.556618 27.4813484,155.559647 27.8994039,155.36025 C30.6167704,154.363264 37.5147101,156.955412 40.8591342,156.157839 C42.7404155,155.559647 43.9945753,153.96447 45.8758118,153.765073 C49.2202614,153.565691 51.5195485,157.753016 53.8188661,158.351176 C56.9543072,159.348162 57.9994393,153.765073 58.8355437,152.967485 C62.5980407,149.178985 72.2133278,149.577749 75.1397156,146.786235 C80.7834508,141.60194 72.6313768,145.988647 76.6029224,141.003748 C77.6480545,139.80738 79.3202889,138.81039 80.9925041,138.411599 L82.0376362,136.018846 C82.0376362,135.81945 82.2466639,134.822478 82.2466639,134.822478 L84.3369473,135.221269 C84.1279196,134.822478 83.7098706,134.423669 83.7098706,134.024902 C83.7098706,133.825488 91.6529169,132.828516 92.0709723,132.62912 C96.0425178,130.834572 94.7883388,127.843632 100.4321,128.242423 C102.731411,128.441819 105.23975,129.239395 107.120986,130.635152 C107.748069,131.033968 107.120986,132.429725 107.748069,132.429725 C109.211276,132.429725 110.674457,131.033968 112.346691,130.834572 C113.182802,130.635152 112.137644,132.62912 112.346691,133.426697 C112.764747,135.021874 113.809879,132.03094 114.227934,132.429725 C114.855011,133.227301 114.855011,134.224297 115.482088,134.822478 C116.318218,135.62006 115.482088,132.230354 116.736273,131.83152 C123.843213,130.036972 120.707798,134.024902 125.724495,136.018846 C127.81474,136.816422 126.351552,132.828516 128.232814,133.825488 C133.040426,136.816422 129.696002,141.003748 131.159209,145.39047 C131.368236,146.387441 136.593916,149.976543 137.848101,150.375353 C140.356415,151.172926 137.220999,146.786235 140.147387,148.381412 C143.909886,150.375353 139.102255,155.958441 141.819621,154.363264 C142.864753,153.765073 142.237651,156.955412 143.073781,157.753016 C144.327941,158.550573 149.553646,158.749955 150.807825,159.746956 L152.89809,165.928236 C152.89809,166.327015 151.643936,166.327015 151.852983,166.725794 C152.271013,168.121559 157.078676,168.719765 157.078676,168.919163 C155.824484,169.716736 154.361303,169.916133 153.316145,170.713721 C152.89809,171.112516 153.107117,171.51131 152.89809,171.910089 C151.852983,172.907074 150.807825,169.11856 149.135591,169.11856 C147.881437,169.11856 149.135591,172.907074 147.881437,172.707693 C147.045307,172.50828 144.327941,170.514309 144.327941,170.514309 C143.909886,171.112516 144.118913,172.308883 143.282828,172.50828 C142.864753,172.707693 142.655751,171.112516 142.446704,171.51131 C141.401572,172.308883 141.610574,173.704663 140.983517,174.502251 C140.147387,173.90406 140.565462,173.704663 140.565462,173.305884 C140.356415,172.308883 139.938385,171.311913 139.52031,170.514309 C138.684206,169.11856 136.802944,172.109486 135.757812,173.305884 C132.831443,176.496192 138.057123,178.091369 138.475178,179.686546 C138.684206,180.683516 137.639048,181.680487 137.639048,182.677472 C137.639048,183.674427 138.893233,184.472031 138.475178,185.269604 C138.057123,186.067177 136.593916,186.067177 135.757812,186.864781 C133.876549,188.260546 136.802944,189.058134 135.757812,190.453899 C134.921682,191.4509 133.667522,192.049076 133.040426,192.846634 C131.159209,195.638209 134.294605,200.0249 132.831443,200.224312 C131.786285,200.423678 130.741153,200.0249 129.696002,200.224312 L128.859891,201.620046 C128.859891,202.218237 128.65087,202.816444 128.232814,202.617047 C128.65087,202.816444 129.277946,202.41765 129.696002,202.816444 C130.323104,203.41462 130.114051,204.611003 130.950181,205.209194 C131.786285,206.006767 140.774489,206.405562 140.565462,205.408591 C140.565462,205.209194 137.639048,204.611003 139.729338,203.41462 C140.983517,202.816444 142.446704,203.015826 143.700864,202.41765 C145.791148,201.420679 146.627278,198.629135 148.92657,197.831546 C153.525173,196.236385 155.824484,197.831546 156.869646,201.620046 C157.287689,200.423678 158.959923,195.837591 156.451588,195.040002 C156.033511,194.840605 156.660585,195.837591 156.242542,195.837591 C156.033511,196.036988 156.033511,195.239414 155.824484,195.040002 C154.570305,194.641208 155.406435,198.230356 153.943222,195.638209 C152.689068,193.843635 152.89809,191.05209 152.689068,189.058134 C152.689068,188.260546 151.225881,186.266575 152.061985,186.665369 C153.943222,187.263575 153.525173,191.849663 155.406435,191.251487 C161.677288,188.858752 157.496718,188.260546 157.496718,185.668399 C157.496718,185.269604 157.914777,186.465987 158.332819,186.266575 C158.959923,186.067177 157.287689,184.472031 157.914777,184.073267 C158.959923,183.674427 160.214083,184.472031 161.259198,184.073267 C162.095315,183.87384 162.722403,183.076251 163.140445,182.278663 C164.81268,178.689545 166.693943,174.302824 167.948103,170.314942 C168.157133,169.517339 166.484898,168.719765 166.902973,167.922162 C167.112002,167.323986 168.366162,167.124589 168.784236,166.526428 C170.247394,163.93428 166.066872,164.333059 167.739074,162.139706 C172.337687,156.556618 178.60855,158.949383 178.60855,157.154824 C178.817547,155.559647 176.518257,153.366294 177.981462,152.369293 C179.026576,151.57172 178.39952,155.559647 179.862709,156.357236 C180.489781,156.955412 181.325883,155.36025 182.371013,155.160868 C183.416176,154.961441 184.670335,155.160868 185.924495,154.961441 C188.64186,154.562662 185.297407,150.175955 185.297407,150.175955 C185.08841,147.783205 187.178655,148.181984 185.924495,146.188028 C186.551567,146.188028 187.178655,145.988647 187.178655,146.387441 C187.3877,157.952382 194.285651,154.163883 200.76548,149.976543 C201.601581,149.378352 198.884248,151.372323 198.048115,152.169927 C197.002968,153.366294 198.466173,155.559647 196.58491,155.759044 C193.031459,156.357236 189.059935,156.556618 185.506469,156.955412 C185.297407,156.955412 180.071707,156.955412 180.698779,157.553603 C181.95297,158.550573 183.207146,159.946353 184.879365,160.345132 C185.506469,160.544529 184.461306,158.749955 185.08841,158.550573 C186.34257,157.952382 187.805775,158.749955 189.268948,158.550573 C189.687023,158.550573 191.359225,157.553603 191.568254,158.749955 C191.986313,160.743926 186.760628,162.139706 188.223802,163.535471 C188.850889,164.333059 196.166883,162.737882 197.212013,162.93728 C197.839085,163.136677 197.212013,164.532456 197.839085,164.731854 C199.30229,165.33003 201.183538,165.529412 202.855773,164.931251 C204.528007,164.532456 205.364108,162.538501 206.827297,161.940309 C208.290486,161.142721 210.171734,161.54153 211.425894,160.943339 C211.843969,160.743926 211.007851,159.746956 211.425894,159.547559 C211.843969,159.148765 212.680086,160.14575 213.098128,159.946353 C214.143275,159.547559 213.516187,156.755999 214.56135,157.154824 C216.442581,157.553603 218.114784,161.342103 219.578005,160.14575 C220.623135,159.148765 220.414122,157.354206 221.668282,156.556618 C225.221732,154.562662 221.459252,159.946353 223.758543,161.940309 C224.59466,162.538501 226.684937,160.14575 226.475908,161.142721 C226.475908,161.740897 219.996047,168.121559 218.741888,168.719765 C218.114784,168.919163 217.487712,167.922162 216.86064,168.320971 C216.651611,168.719765 217.90577,169.11856 217.696741,169.517339 C217.696741,169.517339 213.307142,173.305884 213.098128,173.305884 C212.680086,173.704663 212.262027,174.302824 212.052998,174.901015 C212.052998,175.29984 212.680086,175.499222 212.680086,175.698619 C212.471057,175.898031 204.946034,180.882913 207.663399,181.879884 C212.889115,183.87384 211.843969,180.484119 216.233552,180.484119 C217.696741,180.683516 222.295354,184.272634 223.758543,183.674427 C225.639807,183.076251 227.102996,180.882913 229.611363,183.275664 C235.25509,188.858752 230.447448,188.061149 231.492595,191.251487 C232.537725,194.043032 234.000915,195.040002 233.791885,195.239414 C232.955784,196.036988 230.02939,196.036988 230.447448,197.233355 C231.074536,198.629135 233.791885,197.831546 235.25509,198.429723 C236.718296,198.828532 236.718296,200.224312 238.599543,200.224312 C249.050928,199.027929 246.960667,187.462957 253.649557,183.076251 C254.903717,182.079296 256.157877,181.281692 257.830111,181.082295 C258.666212,181.082295 259.711343,182.079296 260.338415,181.680487 C261.801636,180.284722 260.547444,177.493178 262.010649,176.296795 C263.473854,175.29984 264.309971,175.698619 264.728014,173.90406 C263.05578,172.707693 264.728014,170.713721 265.355102,170.514309 C266.400248,169.916133 267.863437,169.916133 269.117597,170.11553 C270.371757,170.314942 271.20789,171.910089 272.46205,171.710707 C273.925255,171.51131 274.343314,169.716736 275.597474,169.11856 C276.64262,168.719765 277.896796,169.11856 278.94191,168.719765 C283.122481,167.323986 279.778044,163.535471 280.196086,160.345132 C280.614145,158.749955 283.122481,157.154824 282.077334,155.958441 C282.077334,155.958441 273.507197,157.553603 273.298183,157.753016 C272.043992,158.550573 273.089154,160.943339 271.834962,161.54153 C270.998861,161.940309 269.95373,161.54153 269.117597,161.142721 C268.490525,160.943339 268.699571,159.746956 268.072483,159.746956 C266.609278,159.746956 267.863437,162.737882 267.027336,163.93428 C265.982206,164.931251 264.937043,166.127588 263.473854,166.526428 C259.920372,167.523383 248.214827,156.755999 246.333563,154.363264 C245.706475,153.765073 242.780081,148.780176 243.19814,148.381412 C244.452316,147.583808 245.706475,150.57475 247.169697,150.375353 C251.977323,149.577749 250.723147,140.405567 252.60441,137.614022 C253.231482,136.816422 254.485642,136.617051 254.903717,135.81945 C255.948847,134.423669 255.948847,132.62912 256.993994,131.432753 C260.129417,127.444823 261.801636,127.843632 264.519001,129.04 C264.728014,129.239395 264.728014,128.641209 264.937043,128.441819 C266.818307,126.447851 264.519001,122.659316 269.535656,122.459921 C271.20789,122.26055 272.253021,125.450879 273.507197,124.653278 C274.970386,123.855702 273.089154,121.462967 273.716226,119.867796 C273.716226,119.469005 278.523884,114.284732 278.732881,114.284732 C279.568982,113.885916 280.614145,115.87986 281.032187,115.281679 C281.450246,114.683517 281.659275,109.299824 282.913451,108.302834 C284.58567,107.106466 289.811354,105.112504 291.901647,104.713713 C292.528751,104.713713 292.737764,106.707675 293.155823,106.109494 C293.782911,105.311918 293.573882,103.916137 294.200985,103.118536 C292.528751,101.124592 293.573882,100.526412 293.991924,98.7318391 Z" id="ua"></path>
                    </g>
                </g>
            </g>
        </g>
    </g>
</svg>